<?xml version="1.0" encoding="utf-8"?>
<!-- Generator: Adobe Illustrator 22.0.1, SVG Export Plug-In . SVG Version: 6.00 Build 0)  -->
<svg version="1.1" id="Layer_1" xmlns="http://www.w3.org/2000/svg" xmlns:xlink="http://www.w3.org/1999/xlink" x="0px" y="0px"
	 width="330.1px" height="444.5px" viewBox="0 0 330.1 444.5" enable-background="new 0 0 330.1 444.5" xml:space="preserve">
<g id="_x31_">
	<polygon fill="#FFFFFF" points="1.1,417.3 34,245.8 53.5,228.2 66,243.6 35.1,405.2 10.6,426.8 	"/>
	<path d="M53.4,228.9l12,14.8L34.6,405l-24,21.2l-9-9L34.5,246L53.4,228.9 M53.5,227.5l-20,18l-33,172l10,10l25-22l31-162
		L53.5,227.5L53.5,227.5z"/>
</g>
<g>
	<polygon fill="#FFFFFF" points="43.1,199.4 73,28.7 84.5,16.2 103,36.7 74.1,199.2 55.6,215.8 	"/>
	<path d="M84.5,17l17.9,19.8L73.6,199l-17.9,16l-12.1-15.8L73.5,29L84.5,17 M84.5,15.5l-12,13l-30,171l13,17l19-17l29-163L84.5,15.5
		L84.5,15.5z"/>
</g>
<g>
	<polygon fill="#FFFFFF" points="109.8,31 92.3,12.5 104.7,1 185.3,1 198.8,15.5 180.4,31 	"/>
	<path d="M185.1,1.5l13,13.9l-17.9,15.1H110l-17-18l12-11H185.1 M185.5,0.5h-81l-13,12l18,19h71l19-16L185.5,0.5L185.5,0.5z"/>
</g>
<g>
	<polygon fill="#FFFFFF" points="224.7,32 209.3,16.6 229.7,1 307.3,1 315.8,9.5 289.4,32 	"/>
	<path d="M307.1,1.5l7.9,7.9l-25.9,22.1H225l-14.9-14.9l19.8-15.1H307.1 M307.5,0.5h-78l-21,16l16,16h65l27-23L307.5,0.5L307.5,0.5z
		"/>
</g>
<g>
	<polygon fill="#FFFFFF" points="265.1,201.4 297,38.8 319.5,17.2 329,28.6 296.1,198.2 277.6,215.8 	"/>
	<path d="M319.5,18l9,10.8L295.6,198l-18,17.1l-12-13.8L297.5,39L319.5,18 M319.5,16.5l-23,22l-32,163l13,15l19-18l33-170
		L319.5,16.5L319.5,16.5z"/>
</g>
<g>
	<polygon fill="#FFFFFF" points="228.1,408.3 256,245.7 273.6,227.2 288,240.7 258.1,415.2 244.6,426.8 	"/>
	<path d="M273.6,227.9l13.9,13L257.6,415l-13,11.1l-16-17.9L256.5,246L273.6,227.9 M273.5,226.5l-18,19l-28,163l17,19l14-12l30-175
		L273.5,226.5L273.5,226.5z"/>
</g>
<g>
	<polygon fill="#FFFFFF" points="146.8,443 134.3,427.6 152.7,414 219.3,414 237.8,432.5 226.3,443 	"/>
	<path d="M219.1,414.5l18,18l-10.9,10H147l-12-14.8l17.9-13.2H219.1 M219.5,413.5h-67l-19,14l13,16h80l12-11L219.5,413.5
		L219.5,413.5z"/>
</g>
<g>
	<polygon fill="#FFFFFF" points="23.2,443.5 15.8,436 39.2,414.5 109.3,414 120.8,426.5 103.3,444 	"/>
	<path d="M109.1,414.5l11,12l-17,17L23.5,443l-7-7l22.9-21L109.1,414.5 M109.5,413.5L39,414l-24,22l8,8l80.5,0.5l18-18L109.5,413.5
		L109.5,413.5z"/>
</g>
<g>
	<polygon fill="#FFFFFF" points="51,352.7 128.9,243.9 160.4,225.7 125.1,300.3 72.2,374.2 44.2,399.2 	"/>
	<path d="M159.3,227l-34.6,73l-52.9,73.8l-26.9,24.1l6.6-45l77.7-108.6L159.3,227 M161.5,224.5l-33,19l-78,109l-7,48l29-26l53-74
		L161.5,224.5L161.5,224.5z"/>
</g>
<g>
	<polygon fill="#FFFFFF" points="73.3,237.5 60.7,222.1 77.2,207.5 140.9,207.5 158.2,220.9 129.9,237.5 	"/>
	<path d="M140.7,208l16.6,12.9L129.8,237H73.5l-12.1-14.9l16-14.1H140.7 M141,207H77l-17,15l13,16h57l29-17L141,207L141,207z"/>
</g>
<g>
	<polygon fill="#FFFFFF" points="141,201.2 100.1,88.5 107.9,42.6 126.1,63.8 155,152.6 161.9,218.3 	"/>
	<path d="M108.2,43.8L125.7,64l28.9,88.7l6.7,64.5l-19.9-16.3L100.6,88.4L108.2,43.8 M107.5,41.5l-8,47l41,113l22,18l-7-67l-29-89
		L107.5,41.5L107.5,41.5z"/>
</g>
<g>
	<polygon fill="#FFFFFF" points="161,150.5 183,39.8 202.5,22.2 217,36.7 194.1,153.3 165.9,209.7 	"/>
	<path d="M202.5,22.9l14,14l-22.9,116.3l-27.3,54.7l-4.7-57.3L183.5,40L202.5,22.9 M202.5,21.5l-20,18l-22,111l5,61l29-58l23-117
		L202.5,21.5L202.5,21.5z"/>
</g>
<g>
	<polygon fill="#FFFFFF" points="208,138.7 257.9,69.8 287.8,43.8 280.1,89.3 202.2,198.1 169.7,216.3 	"/>
	<path d="M287.1,45.1l-7.5,44l-77.7,108.6l-31,17.3l37.5-76l49.9-68.8L287.1,45.1 M288.5,42.5l-31,27l-50,69l-39,79l34-19l78-109
		L288.5,42.5L288.5,42.5z"/>
</g>
<g>
	<polygon fill="#FFFFFF" points="191.2,237.5 172.9,222.1 198.2,207.5 257.8,207.5 269.3,220 249.8,237.5 	"/>
	<path d="M257.6,208l11,11.9l-19,17.1h-58.3l-17.6-14.8l24.5-14.2H257.6 M258,207h-60l-26,15l19,16h59l20-18L258,207L258,207z"/>
</g>
<g>
	<polygon fill="#FFFFFF" points="205,378.3 175,292.4 169.1,226.7 187.1,241.8 230,357.6 224.2,402.3 	"/>
	<path d="M169.8,227.8l16.9,14.3l42.8,115.5l-5.7,43.4l-18.4-23l-29.9-85.7L169.8,227.8 M168.5,225.5l6,67l30,86l20,25l6-46l-43-116
		L168.5,225.5L168.5,225.5z"/>
</g>
<g>
	<polygon fill="#FFFFFF" points="116.1,406.4 135,293.6 163.2,232.4 168,285.5 148.1,404.2 128.6,420.8 	"/>
	<path d="M162.9,234.3l4.6,51.1L147.6,404l-19,16.1l-12-13.9l18.9-112.4L162.9,234.3 M163.5,230.5l-29,63l-19,113l13,15l20-17
		l20-119L163.5,230.5L163.5,230.5z"/>
</g>
<g>
	<circle fill="#FFFFFF" stroke="#000000" stroke-miterlimit="10" cx="297" cy="427" r="16.5"/>
</g>
</svg>
