<?xml version="1.0" encoding="utf-8"?>
<!-- Generator: Adobe Illustrator 22.0.1, SVG Export Plug-In . SVG Version: 6.00 Build 0)  -->
<svg version="1.1" xmlns="http://www.w3.org/2000/svg" xmlns:xlink="http://www.w3.org/1999/xlink" x="0px" y="0px" width="329px"
	 height="444px" viewBox="0 0 329 444" enable-background="new 0 0 329 444" xml:space="preserve">
<g id="Layer_1">
	<g id="_x31_">
		<polygon fill="#E0E0E0" points="0.6,416.8 33.5,245.3 53,227.7 65.5,243.1 34.6,404.7 10.1,426.3 		"/>
		<path fill="#E0E0E0" d="M52.9,228.4l12,14.8L34.1,404.5l-24,21.2l-9-9L34,245.5L52.9,228.4 M53,227l-20,18L0,417l10,10l25-22
			l31-162L53,227L53,227z"/>
	</g>
	<g>
		<polygon fill="#E0E0E0" points="42.6,198.9 72.5,28.2 84,15.7 102.5,36.2 73.6,198.7 55.1,215.3 		"/>
		<path fill="#E0E0E0" d="M84,16.5l17.9,19.8L73.1,198.5l-17.9,16l-12.1-15.8L73,28.5L84,16.5 M84,15L72,28L42,199l13,17l19-17
			l29-163L84,15L84,15z"/>
	</g>
	<g>
		<polygon fill="#E0E0E0" points="109.3,30.5 91.8,12 104.2,0.5 184.8,0.5 198.3,15 179.9,30.5 		"/>
		<path fill="#E0E0E0" d="M184.6,1l13,13.9L179.7,30h-70.2l-17-18l12-11H184.6 M185,0h-81L91,12l18,19h71l19-16L185,0L185,0z"/>
	</g>
	<g>
		<polygon fill="#E0E0E0" points="224.2,31.5 208.8,16.1 229.2,0.5 306.8,0.5 315.3,9 288.9,31.5 		"/>
		<path fill="#E0E0E0" d="M306.6,1l7.9,7.9L288.6,31h-64.1l-14.9-14.9L229.4,1H306.6 M307,0h-78l-21,16l16,16h65l27-23L307,0L307,0z
			"/>
	</g>
	<g>
		<polygon fill="#E0E0E0" points="264.6,200.9 296.5,38.3 319,16.7 328.5,28.1 295.6,197.7 277.1,215.3 		"/>
		<path fill="#E0E0E0" d="M319,17.5l9,10.8l-32.9,169.2l-18,17.1l-12-13.8L297,38.5L319,17.5 M319,16l-23,22l-32,163l13,15l19-18
			l33-170L319,16L319,16z"/>
	</g>
	<g>
		<polygon fill="#E0E0E0" points="227.6,407.8 255.5,245.2 273.1,226.7 287.5,240.2 257.6,414.7 244.1,426.3 		"/>
		<path fill="#E0E0E0" d="M273.1,227.4l13.9,13l-29.9,174.1l-13,11.1l-16-17.9L256,245.5L273.1,227.4 M273,226l-18,19l-28,163l17,19
			l14-12l30-175L273,226L273,226z"/>
	</g>
	<g>
		<polygon fill="#E0E0E0" points="146.3,442.5 133.8,427.1 152.2,413.5 218.8,413.5 237.3,432 225.8,442.5 		"/>
		<path fill="#E0E0E0" d="M218.6,414l18,18l-10.9,10h-79.2l-12-14.8l17.9-13.2H218.6 M219,413h-67l-19,14l13,16h80l12-11L219,413
			L219,413z"/>
	</g>
	<g>
		<polygon fill="#E0E0E0" points="22.7,443 15.3,435.5 38.7,414 108.8,413.5 120.3,426 102.8,443.5 		"/>
		<path fill="#E0E0E0" d="M108.6,414l11,12l-17,17L23,442.5l-7-7l22.9-21L108.6,414 M109,413l-70.5,0.5l-24,22l8,8L103,444l18-18
			L109,413L109,413z"/>
	</g>
	<g>
		<polygon fill="#E0E0E0" points="50.5,352.2 128.4,243.4 159.9,225.2 124.6,299.8 71.7,373.7 43.7,398.7 		"/>
		<path fill="#E0E0E0" d="M158.8,226.5l-34.6,73l-52.9,73.8l-26.9,24.1l6.6-45l77.7-108.6L158.8,226.5 M161,224l-33,19L50,352l-7,48
			l29-26l53-74L161,224L161,224z"/>
	</g>
	<g>
		<polygon fill="#E0E0E0" points="72.8,237 60.2,221.6 76.7,207 140.4,207 157.7,220.4 129.4,237 		"/>
		<path fill="#E0E0E0" d="M140.2,207.5l16.6,12.9l-27.5,16.1H73l-12.1-14.9l16-14.1H140.2 M140.5,206.5h-64l-17,15l13,16h57l29-17
			L140.5,206.5L140.5,206.5z"/>
	</g>
	<g>
		<polygon fill="#E0E0E0" points="140.5,200.7 99.6,88 107.4,42.1 125.6,63.3 154.5,152.1 161.4,217.8 		"/>
		<path fill="#E0E0E0" d="M107.7,43.3l17.5,20.2l28.9,88.7l6.7,64.5l-19.9-16.3L100.1,87.9L107.7,43.3 M107,41l-8,47l41,113l22,18
			l-7-67l-29-89L107,41L107,41z"/>
	</g>
	<g>
		<polygon fill="#E0E0E0" points="160.5,150 182.5,39.3 202,21.7 216.5,36.2 193.6,152.8 165.4,209.2 		"/>
		<path fill="#E0E0E0" d="M202,22.4l14,14l-22.9,116.3l-27.3,54.7l-4.7-57.3L183,39.5L202,22.4 M202,21l-20,18l-22,111l5,61l29-58
			l23-117L202,21L202,21z"/>
	</g>
	<g>
		<polygon fill="#E0E0E0" points="207.5,138.2 257.4,69.3 287.3,43.3 279.6,88.8 201.7,197.6 169.2,215.8 		"/>
		<path fill="#E0E0E0" d="M286.6,44.6l-7.5,44l-77.7,108.6l-31,17.3l37.5-76l49.9-68.8L286.6,44.6 M288,42l-31,27l-50,69l-39,79
			l34-19l78-109L288,42L288,42z"/>
	</g>
	<g>
		<polygon fill="#E0E0E0" points="190.7,237 172.4,221.6 197.7,207 257.3,207 268.8,219.5 249.3,237 		"/>
		<path fill="#E0E0E0" d="M257.1,207.5l11,11.9l-19,17.1h-58.3l-17.6-14.8l24.5-14.2H257.1 M257.5,206.5h-60l-26,15l19,16h59l20-18
			L257.5,206.5L257.5,206.5z"/>
	</g>
	<g>
		<polygon fill="#E0E0E0" points="204.5,377.8 174.5,291.9 168.6,226.2 186.6,241.3 229.5,357.1 223.7,401.8 		"/>
		<path fill="#E0E0E0" d="M169.3,227.3l16.9,14.3L229,357.1l-5.7,43.4l-18.4-23L175,291.8L169.3,227.3 M168,225l6,67l30,86l20,25
			l6-46l-43-116L168,225L168,225z"/>
	</g>
	<g>
		<polygon fill="#E0E0E0" points="115.6,405.9 134.5,293.1 162.7,231.9 167.5,285 147.6,403.7 128.1,420.3 		"/>
		<path fill="#E0E0E0" d="M162.4,233.8l4.6,51.1l-19.9,118.6l-19,16.1l-12-13.9L135,293.3L162.4,233.8 M163,230l-29,63l-19,113
			l13,15l20-17l20-119L163,230L163,230z"/>
	</g>
	<g>
		<circle fill="#E0E0E0" cx="296.5" cy="426.5" r="16.5"/>
	</g>
</g>
<g id="Layer_2">
	<rect x="13.8" y="320" fill="none" width="37.9" height="24.5"/>
	<text transform="matrix(1 0 0 1 25.5767 338.2002)" font-family="'FiraCode-Bold'" font-size="24px">0</text>
	<rect x="51.8" y="108" fill="none" width="37.9" height="24.5"/>
	<text transform="matrix(1 0 0 1 63.5767 126.2002)" font-family="'FiraCode-Bold'" font-size="24px">1</text>
	<rect x="123.8" y="6" fill="none" width="37.9" height="19.5"/>
	<text transform="matrix(1 0 0 1 135.5767 24.2002)" font-family="'FiraCode-Bold'" font-size="24px">2</text>
	<rect x="245.8" y="6" fill="none" width="37.9" height="19.5"/>
	<text transform="matrix(1 0 0 1 257.5767 24.2002)" font-family="'FiraCode-Bold'" font-size="24px">3</text>
	<rect x="276.8" y="108" fill="none" width="37.9" height="24.5"/>
	<text transform="matrix(1 0 0 1 288.5767 126.2002)" font-family="'FiraCode-Bold'" font-size="24px">4</text>
	<rect x="237.8" y="320" fill="none" width="37.9" height="24.5"/>
	<text transform="matrix(1 0 0 1 249.5767 338.2002)" font-family="'FiraCode-Bold'" font-size="24px">5</text>
	<rect x="45.8" y="418" fill="none" width="37.9" height="19.5"/>
	<text transform="matrix(1 0 0 1 57.5767 436.2002)" font-family="'FiraCode-Bold'" font-size="24px">7</text>
	<rect x="167.8" y="418" fill="none" width="37.9" height="19.5"/>
	<text transform="matrix(1 0 0 1 179.5767 436.2002)" font-family="'FiraCode-Bold'" font-size="24px">6</text>
	<rect x="87.8" y="285" fill="none" width="37.9" height="19.5"/>
	<text transform="matrix(1 0 0 1 99.5767 303.2002)" font-family="'FiraCode-Bold'" font-size="24px">8</text>
	<rect x="115.8" y="133" fill="none" width="37.9" height="19.5"/>
	<text transform="matrix(1 0 0 1 120.377 151.2002)" font-family="'FiraCode-Bold'" font-size="24px">10</text>
	<rect x="203.8" y="133" fill="none" width="37.9" height="19.5"/>
	<text transform="matrix(1 0 0 1 208.377 151.2002)" font-family="'FiraCode-Bold'" font-size="24px">12</text>
	<rect x="172.8" y="285" fill="none" width="37.9" height="19.5"/>
	<text transform="matrix(1 0 0 1 177.377 303.2002)" font-family="'FiraCode-Bold'" font-size="24px">14</text>
	<rect x="165.8" y="99" fill="none" width="37.9" height="19.5"/>
	<text transform="matrix(1 0 0 1 170.377 117.2002)" font-family="'FiraCode-Bold'" font-size="24px">11</text>
	<rect x="126.8" y="317" fill="none" width="37.9" height="19.5"/>
	<text transform="matrix(1 0 0 1 131.377 335.2002)" font-family="'FiraCode-Bold'" font-size="24px">15</text>
	<rect x="276.8" y="417" fill="none" width="37.9" height="19.5"/>
	<text transform="matrix(1 0 0 1 281.377 435.2002)" font-family="'FiraCode-Bold'" font-size="24px">16</text>
	<rect x="84.8" y="212" fill="none" width="37.9" height="19.5"/>
	<text transform="matrix(1 0 0 1 96.5767 230.2002)" font-family="'FiraCode-Bold'" font-size="24px">9</text>
	<rect x="206.8" y="212" fill="none" width="37.9" height="19.5"/>
	<text transform="matrix(1 0 0 1 211.377 230.2002)" font-family="'FiraCode-Bold'" font-size="24px">13</text>
</g>
</svg>
